<svg xmlns="http://www.w3.org/2000/svg" version="1.1" xmlns:xlink="http://www.w3.org/1999/xlink" xmlns:svgjs="http://svgjs.dev/svgjs" width="2000" height="1500" viewBox="0 0 2000 1500"><rect width="2000" height="1500" fill="#fe9902"></rect><g transform="matrix(0.75,0,0,0.75,250,281.25)"><svg viewBox="0 0 512 320" data-background-color="#fe9902" preserveAspectRatio="xMidYMid meet" height="1250" width="2000" xmlns="http://www.w3.org/2000/svg" xmlns:xlink="http://www.w3.org/1999/xlink"><g id="tight-bounds" transform="matrix(1,0,0,1,0,0)"><svg viewBox="0 0 512 320" height="320" width="512"><g><svg></svg></g><g><svg viewBox="0 0 512 320" height="320" width="512"><g><path d="M96 320l0-320 320 0 0 320zM401.571 305.571v-291.142l-291.142 0 0 291.142z" fill="#fbfbf8" fill-rule="nonzero" stroke="none" stroke-width="1" stroke-linecap="butt" stroke-linejoin="miter" stroke-miterlimit="10" stroke-dasharray="" stroke-dashoffset="0" font-family="none" font-weight="none" font-size="none" text-anchor="none" style="mix-blend-mode: normal" data-fill-palette-color="tertiary"></path></g><g transform="matrix(1,0,0,1,162.28571428571428,80)"><svg viewBox="0 0 187.42857142857144 160" height="160" width="187.42857142857144"><g><svg viewBox="0 0 187.42857142857144 160" height="160" width="187.42857142857144"><g><svg viewBox="0 0 187.42857142857144 160" height="160" width="187.42857142857144"><g><svg viewBox="0 0 187.42857142857144 160" height="160" width="187.42857142857144"><g id="textblocktransform"><svg viewBox="0 0 187.42857142857144 160" height="160" width="187.42857142857144" id="textblock"><g><svg viewBox="0 0 187.42857142857144 160" height="160" width="187.42857142857144"><g transform="matrix(1,0,0,1,0,0)"><svg width="187.42857142857144" viewBox="4.15 -35 41 35" height="160" data-palette-color="#fbfbf8"><path d="M23.35-32.4Q23.35-31.9 22.85-31.9L22.85-31.9 7.9-31.9Q7.7-31.9 7.7-31.7L7.7-31.7 7.7-19.3Q7.7-19.1 7.9-19.1L7.9-19.1 17.95-19.1Q18.45-19.1 18.45-18.6L18.45-18.6 18.45-16.5Q18.45-16 17.95-16L17.95-16 7.9-16Q7.7-16 7.7-15.8L7.7-15.8 7.7-0.5Q7.7 0 7.2 0L7.2 0 4.65 0Q4.15 0 4.15-0.5L4.15-0.5 4.15-34.5Q4.15-35 4.65-35L4.65-35 22.85-35Q23.35-35 23.35-34.5L23.35-34.5 23.35-32.4ZM37.6-25.65Q41.1-25.65 43.12-23.43 45.15-21.2 45.15-17.35L45.15-17.35 45.15-0.5Q45.15 0 44.65 0L44.65 0 42.1 0Q41.6 0 41.6-0.5L41.6-0.5 41.6-16.85Q41.6-19.45 40.25-21 38.9-22.55 36.55-22.55L36.55-22.55Q34.2-22.55 32.77-20.98 31.35-19.4 31.35-16.75L31.35-16.75 31.35-0.5Q31.35 0 30.85 0L30.85 0 28.3 0Q27.8 0 27.8-0.5L27.8-0.5 27.8-34.5Q27.8-35 28.3-35L28.3-35 30.85-35Q31.35-35 31.35-34.5L31.35-34.5 31.35-22.85Q31.35-22.75 31.42-22.7 31.5-22.65 31.6-22.75L31.6-22.75Q33.55-25.65 37.6-25.65L37.6-25.65Z" opacity="1" transform="matrix(1,0,0,1,0,0)" fill="#fbfbf8" class="wordmark-text-0" data-fill-palette-color="primary" id="text-0"></path></svg></g></svg></g></svg></g></svg></g></svg></g></svg></g></svg></g></svg></g><defs></defs></svg><rect width="512" height="320" fill="none" stroke="none" visibility="hidden"></rect></g></svg></g></svg>